<?xml version="1.0" encoding="utf-8"?>
<!-- Generator: Adobe Illustrator 20.1.0, SVG Export Plug-In . SVG Version: 6.00 Build 0)  -->
<svg version="1.1" id="Слой_1" opacity="0.2" xmlns="http://www.w3.org/2000/svg" xmlns:xlink="http://www.w3.org/1999/xlink"
	 x="0px" y="0px" width="105.3px" height="116.3px" viewBox="0 0 105.3 116.3" style="enable-background:new 0 0 105.3 116.3;"
	 xml:space="preserve">
<g>
	<path d="M48.5,51.8c1.6-1.6,1.6-4.2,0-5.8s-4.2-1.6-5.8,0L21,67.8c-3.7,3.7-5.7,8.5-5.7,13.7s2,10,5.7,13.7
		c7.6,7.6,19.9,7.6,27.4,0l49-49c5.1-5.1,7.9-11.9,7.9-19.1s-2.8-14-7.9-19.1C86.8-2.7,69.7-2.7,59.1,8L10.2,56.9
		C3.6,63.5,0,72.2,0,81.5s3.6,18.1,10.2,24.6c6.6,6.6,15.3,10.2,24.6,10.2s18.1-3.6,24.6-10.2l21.7-21.7c1.6-1.6,1.6-4.2,0-5.8
		s-4.2-1.6-5.8,0l-21.7,21.7c-5,5-11.7,7.8-18.8,7.8S21,105.2,16,100.2S8.2,88.5,8.2,81.4S11,67.6,16,62.6l48.9-48.9
		c3.6-3.6,8.3-5.5,13.3-5.5s9.8,2,13.3,5.5C95.1,17.3,97,22,97,27s-2,9.8-5.5,13.3l-49,49c-4.3,4.3-11.4,4.3-15.8,0
		c-2.1-2.1-3.3-4.9-3.3-7.9s1.2-5.8,3.3-7.9L48.5,51.8L48.5,51.8z"/>
</g>
</svg>
