<?xml version="1.0" standalone="no"?>
<!DOCTYPE svg PUBLIC "-//W3C//DTD SVG 20010904//EN"
 "http://www.w3.org/TR/2001/REC-SVG-20010904/DTD/svg10.dtd">
<svg version="1.0" xmlns="http://www.w3.org/2000/svg"
 width="500.000000pt" height="500.000000pt" viewBox="0 0 500.000000 500.000000"
 preserveAspectRatio="xMidYMid meet">
<metadata>
Created by potrace 1.11, written by Peter Selinger 2001-2013
</metadata>
<g transform="translate(0.000000,500.000000) scale(0.100000,-0.100000)"
fill="#000000" stroke="none">
<path d="M320 2500 l0 -2500 602 2 602 3 0 1463 c0 1380 1 1463 17 1460 10 -2
87 -100 173 -218 85 -118 159 -219 163 -225 12 -14 159 -217 228 -315 13 -19
44 -62 69 -95 24 -33 57 -78 73 -100 84 -118 521 -721 583 -805 10 -14 103
-142 206 -285 103 -143 219 -303 258 -356 39 -53 141 -194 226 -313 l155 -215
503 -1 502 0 0 2500 0 2500 -602 -2 -601 -3 -1 -1449 c-1 -1066 -4 -1450 -12
-1453 -6 -2 -45 42 -85 97 -41 56 -92 126 -114 155 -46 62 -213 291 -267 368
-21 29 -97 134 -170 234 -73 100 -140 192 -148 203 -8 12 -31 43 -50 69 -19
26 -56 76 -82 111 -154 213 -420 578 -434 597 -8 12 -80 111 -159 220 -80 109
-150 206 -157 215 -7 9 -114 156 -238 327 l-225 310 -507 1 -508 0 0 -2500z"/>
</g>
</svg>
