<?xml version="1.0" encoding="utf-8"?>
<!-- Generator: Adobe Illustrator 20.1.0, SVG Export Plug-In . SVG Version: 6.00 Build 0)  -->
<svg version="1.1" id="Слой_1" xmlns:sketch="http://www.bohemiancoding.com/sketch/ns"
	 xmlns="http://www.w3.org/2000/svg" xmlns:xlink="http://www.w3.org/1999/xlink" x="0px" y="0px" width="60px" height="60px"
	 viewBox="0 0 60 60" style="enable-background:new 0 0 60 60;" xml:space="preserve">
<style type="text/css">
	.st0{fill:#FFFFFF;}
</style>
<title></title>
<g id="black">
	<g id="whatsapp">
		<path d="M30,60c16.6,0,30-13.4,30-30S46.6,0,30,0S0,13.4,0,30S13.4,60,30,60z"/>
		<path class="st0" d="M30.1,46.2c-2.9,0-5.5-0.7-7.9-2l-9,2.9l2.9-8.7c-1.5-2.4-2.3-5.3-2.3-8.4c0-8.9,7.3-16.2,16.3-16.2
			c9,0,16.3,7.2,16.3,16.2S39.1,46.2,30.1,46.2z M30.1,16.4c-7.6,0-13.7,6.1-13.7,13.6c0,3,1,5.7,2.6,8l-1.7,5.1l5.3-1.7
			c2.2,1.4,4.8,2.3,7.5,2.3c7.6,0,13.7-6.1,13.7-13.6S37.6,16.4,30.1,16.4L30.1,16.4z M38.3,33.8c-0.1-0.2-0.4-0.3-0.8-0.5
			c-0.4-0.2-2.4-1.2-2.7-1.3c-0.4-0.1-0.6-0.2-0.9,0.2c-0.3,0.4-1,1.3-1.3,1.6c-0.2,0.3-0.5,0.3-0.9,0.1c-0.4-0.2-1.7-0.6-3.2-2
			c-1.2-1.1-2-2.3-2.2-2.7c-0.2-0.4,0-0.6,0.2-0.8c0.2-0.2,0.4-0.5,0.6-0.7c0.2-0.2,0.3-0.4,0.4-0.7c0.1-0.3,0.1-0.5,0-0.7
			c-0.1-0.2-0.9-2.2-1.2-2.9c-0.3-0.8-0.7-0.7-0.9-0.7c-0.2,0-0.5,0-0.8,0s-0.7,0.1-1.1,0.5c-0.4,0.4-1.4,1.4-1.4,3.3
			c0,2,1.4,3.8,1.6,4.1c0.2,0.3,2.8,4.4,6.8,6c4.1,1.6,4.1,1.1,4.8,1c0.7-0.1,2.4-1,2.7-1.9C38.4,34.7,38.4,33.9,38.3,33.8
			L38.3,33.8z"/>
	</g>
</g>
</svg>
