<?xml version="1.0" encoding="utf-8"?>
<!-- Generator: Adobe Illustrator 20.1.0, SVG Export Plug-In . SVG Version: 6.00 Build 0)  -->
<svg version="1.1" id="Слой_1" xmlns="http://www.w3.org/2000/svg" xmlns:xlink="http://www.w3.org/1999/xlink" x="0px" y="0px"
	 width="137px" height="14.6px" viewBox="0 0 137 14.6" style="enable-background:new 0 0 137 14.6;" xml:space="preserve">
<path d="M133.1,3.1v11.2h-3.6V3.1h-3.9V0.2H137v2.9C137,3.1,133.1,3.1,133.1,3.1z M119.3,10.2H117v4.1h-3.6V0.2h6.2c3,0,5.1,2,5.1,5
	C124.6,8.2,122.5,10.2,119.3,10.2z M118.6,3H117v4.5h1.6c1.5,0,2.4-0.8,2.4-2.3C121,3.8,120.1,3,118.6,3z M101.7,0.2h9.7v2.9h-6.1
	v2.8h5.7v2.6h-5.7v2.9h6.1v2.9h-9.7V0.2z M93.6,11.7c1.6,0,2.7-1,2.9-2.7h3.4c-0.2,3.3-2.8,5.6-6.4,5.6c-4.2,0-6.8-2.7-6.8-7.3
	S89.3,0,93.5,0c3.6,0,6.3,2.3,6.4,5.6h-3.4c-0.2-1.7-1.4-2.8-2.9-2.8c-2,0-3.2,1.7-3.2,4.4C90.4,10,91.7,11.7,93.6,11.7z M76.2,6.1
	L76.2,6.1l-0.1,8.3h-3.4V0.2h2.9l6,8.2h0.1V0.2H85v14.1h-2.8L76.2,6.1z M64,14.6c-4.3,0-7-2.8-7-7.3S59.7,0,64,0s7,2.8,7,7.3
	S68.3,14.6,64,14.6z M64,2.9c-2,0-3.3,1.7-3.3,4.4s1.3,4.4,3.3,4.4s3.3-1.7,3.3-4.4S66,2.9,64,2.9z M49.4,11.7c1.6,0,2.7-1,2.9-2.7
	h3.4c-0.2,3.3-2.8,5.6-6.4,5.6c-4.2,0-6.8-2.7-6.8-7.3S45.1,0,49.3,0c3.6,0,6.3,2.3,6.4,5.6h-3.4c-0.2-1.7-1.4-2.8-2.9-2.8
	c-2,0-3.2,1.7-3.2,4.4C46.2,10,47.4,11.7,49.4,11.7z M41.4,10.3c0,2.5-1.9,4.1-4.9,4.1h-6.8V0.2h6.6c2.8,0,4.5,1.3,4.5,3.5
	c0,1.6-1.2,2.8-2.8,3.1v0.1C39.9,7,41.4,8.4,41.4,10.3z M35.4,2.8h-2.1V6h1.9c1.3,0,2.1-0.6,2.1-1.6C37.3,3.4,36.6,2.8,35.4,2.8z
	 M35.4,8.2h-2.1v3.6h2.2c1.5,0,2.3-0.6,2.3-1.8C37.8,8.8,36.9,8.2,35.4,8.2z M21,14.6c-4.3,0-7-2.8-7-7.3S16.7,0,21,0s7,2.8,7,7.3
	S25.3,14.6,21,14.6z M21,2.9c-2,0-3.3,1.7-3.3,4.4s1.3,4.4,3.3,4.4s3.3-1.7,3.3-4.4S23,2.9,21,2.9z M3.5,6.1L3.5,6.1l-0.1,8.3H0V0.2
	h2.9l6,8.2H9V0.2h3.4v14.1H9.5L3.5,6.1z"/>
</svg>
