<?xml version="1.0" encoding="utf-8"?>
<!-- Generator: Adobe Illustrator 20.1.0, SVG Export Plug-In . SVG Version: 6.00 Build 0)  -->
<svg version="1.1" id="Слой_1" opacity="0.2" xmlns="http://www.w3.org/2000/svg" xmlns:xlink="http://www.w3.org/1999/xlink"
	 x="0px" y="0px" width="420px" height="512px" viewBox="0 0 420 512" style="enable-background:new 0 0 420 512;"
	 xml:space="preserve">
<title>Combined Shape</title>
<desc>Created with Sketch.</desc>
<g id="Page-1">
	<path id="Combined-Shape" d="M210,0c115.8,0,210,94.2,210,210c0,93.4-61.5,175.2-150.4,201.4l-46.1,92.3c-2.5,5.1-7.7,8.3-13.4,8.3
		c-5.7,0-10.9-3.2-13.4-8.3l-46.1-92.3C61.5,385.2,0,303.4,0,210C0,94.2,94.2,0,210,0z M210,268c38.7,0,70-31.3,70-70
		s-31.3-70-70-70s-70,31.3-70,70S171.3,268,210,268z"/>
</g>
</svg>
