<?xml version="1.0" encoding="utf-8"?>
<!-- Generator: Adobe Illustrator 20.1.0, SVG Export Plug-In . SVG Version: 6.00 Build 0)  -->
<svg version="1.1" id="Слой_1" xmlns="http://www.w3.org/2000/svg" xmlns:xlink="http://www.w3.org/1999/xlink" x="0px" y="0px"
	 width="535px" height="688.5px" viewBox="0 0 535 688.5" style="enable-background:new 0 0 535 688.5;" xml:space="preserve">
<title>Combined Shape</title>
<desc>Created with Sketch.</desc>
<g id="Page-1">
	<path id="Combined-Shape" d="M411.5,236.5v47c0,0.8,0,1.7,0,2.5h-40c0-0.8,0-1.7,0-2.5v-47h-207v47c0,0.8,0,1.7,0,2.5h-40
		c0-0.8,0-1.7,0-2.5v-47H45v407h445v-407H411.5z M124.5,191.5v-48C124.5,64.2,188.7,0,268,0s143.5,64.2,143.5,143.5v48h101
		c12.4,0,22.5,10.1,22.5,22.5v452c0,12.4-10.1,22.5-22.5,22.5h-490C10.1,688.5,0,678.4,0,666V214c0-12.4,10.1-22.5,22.5-22.5H124.5z
		 M164.5,191.5h207v-48C371.5,86.3,325.2,40,268,40S164.5,86.3,164.5,143.5V191.5z"/>
</g>
</svg>
